<svg xmlns="http://www.w3.org/2000/svg" width="100%" viewBox="0 0 189 27" fill="none" class="nav_logo"><path d="M63.8716 13.099C63.8716 5.18352 70.5265 0 80.2632 0C89.0893 0 95.4638 4.30871 96.1647 10.367H91.2679C90.3636 10.367 89.5446 9.86955 89.0882 9.08855C87.8709 7.00481 84.6984 5.25413 80.2621 5.25413C74.2028 5.25413 70.3146 8.47618 70.3146 13.1C70.3146 17.7239 74.2028 21.0513 80.2621 21.0513C84.7068 21.0513 87.8814 19.2943 89.0946 17.1642C89.5457 16.3716 90.372 15.8667 91.2837 15.8667H96.1637C95.4628 21.9957 89.0882 26.3044 80.2621 26.3044C70.5254 26.3044 63.8705 21.1209 63.8705 13.1L63.8716 13.099Z" fill="currentColor"></path><path d="M129.809 0.626186H154.782V5.35438H137.566C136.706 5.35438 136.009 6.05212 136.009 6.91217V10.9237H154.081V15.2671H136.009V19.3134C136.009 20.1735 136.706 20.8712 137.566 20.8712H154.782V25.5994H129.809V0.626186Z" fill="currentColor"></path><path d="M159.193 0.626396H176.111C183.536 0.626396 189 5.88053 189 13.0951C189 20.3096 183.536 25.5996 176.111 25.5996H159.193V0.626396ZM173.658 20.3455C179.297 20.3455 182.59 17.6135 182.59 13.0951C182.59 8.57663 179.297 5.87948 173.658 5.87948H165.392V20.3455H173.658Z" fill="currentColor"></path><path d="M113.441 13.0927C113.421 13.0622 113.407 13.04 113.407 13.04C113.407 13.04 113.421 13.019 113.441 12.9873C114.122 12.7765 125.173 9.23092 125.173 0.487034H117.502C117.502 1.68542 117.29 2.78368 116.93 3.79129C114.787 8.99167 110.176 11.2662 106.511 12.2633V0.488088H100.235V25.5941H106.511V13.8179C110.176 14.8139 114.787 17.0895 116.93 22.2898C117.29 23.2975 117.502 24.3957 117.502 25.5941H125.173C125.173 16.8492 114.123 13.3035 113.441 13.0938V13.0927Z" fill="currentColor"></path><path d="M22.5311 13.1069H22.5448C25.4876 12.3554 27.8327 10.6574 27.8327 7.21721C27.8327 3.25211 25.359 0.609758 19.8361 0.609758H0.0137019V13.108H0V25.6062H19.8224C25.3453 25.6062 27.819 22.9628 27.819 18.9987C27.819 15.5585 25.4739 13.8605 22.5311 13.109V13.1069ZM21.0186 20.4595C18 20.4595 6.18481 20.4543 6.18481 20.4543V5.84808C6.18481 5.84808 19.5346 5.84492 21.0186 5.84492C20.5728 11.723 14.1161 13.1195 14.1161 13.1195C14.1161 13.1195 21.0186 15.0873 21.0186 20.4595Z" fill="currentColor"></path><path d="M50.2226 0.640681H42.3957L29.107 25.4442H35.6818L39.5268 17.9293H53.0031L56.9028 25.4442H63.4776L50.2226 0.640681ZM41.1488 13.2696L43.1388 9.50894L44.8726 6.11615C45.4734 4.9399 47.1545 4.9399 47.7552 6.11615L49.4532 9.43832L51.4337 13.2685H41.1488V13.2696Z" fill="currentColor"></path></svg>